Coordinates
version=1
nRows=60
nColumns=12
inDegrees=yes

Units are S.I. units (second, meters, Newtons, ...)
Angles are in degrees

endheader
time	SC_y	SC_z	SC_x	AC_y	AC_z	AC_x	GH_y	GH_z	GH_yy	EL_x	PS_y
       0.0              -16.12          21.42          57.39          31.56         -6.161         -18.54         -49.38          75.76          138.9          119.6          43.31
   0.01714              -16.12          21.42          57.38          31.57         -6.159         -18.54         -49.38          75.76          138.8          119.6          43.33
   0.03427              -16.13          21.42          57.37          31.57         -6.157         -18.54         -49.37          75.76          138.8          119.6          43.35
   0.05141              -16.13          21.42          57.37          31.58         -6.155         -18.54         -49.36          75.75          138.8          119.6          43.36
   0.06854              -16.14          21.43          57.36          31.59         -6.152         -18.54         -49.36          75.75          138.8          119.6          43.38
   0.08568              -16.15          21.43          57.35          31.59          -6.15         -18.53         -49.35          75.75          138.8          119.6           43.4
    0.1028              -16.15          21.43          57.34           31.6         -6.147         -18.53         -49.34          75.74          138.7          119.6          43.43
      0.12              -16.16          21.43          57.34          31.61         -6.145         -18.53         -49.33          75.74          138.7          119.6          43.45
    0.1371              -16.17          21.43          57.33          31.61         -6.142         -18.53         -49.32          75.73          138.7          119.6          43.48
    0.1542              -16.18          21.44          57.32          31.62         -6.138         -18.53         -49.31          75.73          138.6          119.6           43.5
    0.1714              -16.19          21.44          57.31          31.63         -6.135         -18.53          -49.3          75.72          138.6          119.6          43.53
    0.1885               -16.2          21.44          57.29          31.64         -6.131         -18.53         -49.28          75.72          138.6          119.6          43.56
    0.2056              -16.21          21.44          57.28          31.65         -6.127         -18.53         -49.27          75.71          138.5          119.6           43.6
    0.2228              -16.22          21.45          57.27          31.66         -6.123         -18.53         -49.26           75.7          138.5          119.6          43.63
    0.2399              -16.23          21.45          57.25          31.67         -6.118         -18.52         -49.24           75.7          138.5          119.6          43.67
     0.257              -16.25          21.45          57.24          31.69         -6.113         -18.52         -49.22          75.69          138.4          119.6          43.72
    0.2742              -16.26          21.46          57.22           31.7         -6.107         -18.52          -49.2          75.68          138.4          119.6          43.76
    0.2913              -16.28          21.46           57.2          31.72         -6.101         -18.52         -49.18          75.67          138.3          119.6          43.81
    0.3084               -16.3          21.47          57.18          31.73         -6.095         -18.52         -49.16          75.66          138.2          119.6          43.87
    0.3256              -16.31          21.47          57.16          31.75         -6.088         -18.51         -49.14          75.65          138.2          119.6          43.93
    0.3427              -16.34          21.48          57.14          31.77          -6.08         -18.51         -49.11          75.63          138.1          119.5           44.0
    0.3599              -16.36          21.48          57.11          31.79         -6.071         -18.51         -49.08          75.62          138.0          119.5          44.07
     0.377              -16.39          21.49          57.08          31.82         -6.061         -18.51         -49.05           75.6          137.9          119.5          44.15
    0.3941              -16.41           21.5          57.05          31.84         -6.051          -18.5         -49.01          75.59          137.8          119.5          44.24
    0.4113              -16.45          21.51          57.01          31.87         -6.039          -18.5         -48.97          75.57          137.7          119.5          44.34
    0.4284              -16.48          21.52          56.97          31.91         -6.026         -18.49         -48.93          75.55          137.6          119.5          44.45
    0.4455              -16.52          21.53          56.92          31.94         -6.011         -18.49         -48.88          75.52          137.5          119.5          44.58
    0.4627              -16.57          21.54          56.87          31.99         -5.994         -18.48         -48.82           75.5          137.3          119.4          44.72
    0.4798              -16.62          21.55          56.82          32.03         -5.975         -18.48         -48.76          75.47          137.1          119.4          44.88
    0.4969              -16.67          21.57          56.75          32.09         -5.954         -18.47         -48.68          75.43          136.9          119.4          45.06
    0.5141              -16.74          21.59          56.68          32.15         -5.929         -18.46          -48.6          75.39          136.7          119.4          45.26
    0.5312              -16.81          21.61          56.59          32.22         -5.901         -18.46         -48.51          75.35          136.5          119.3           45.5
    0.5484               -16.9          21.63          56.49           32.3         -5.869         -18.44          -48.4           75.3          136.2          119.3          45.77
    0.5655               -17.0          21.66          56.37           32.4         -5.831         -18.43         -48.27          75.24          135.8          119.3          46.09
    0.5826              -17.12          21.69          56.24          32.51         -5.787         -18.42         -48.12          75.16          135.4          119.2          46.46
    0.5998              -17.26          21.73          56.08          32.64         -5.735          -18.4         -47.95          75.08          134.9          119.2           46.9
    0.6169              -17.43          21.77          55.89           32.8         -5.674         -18.38         -47.74          74.98          134.3          119.1          47.41
     0.634              -17.62          21.82          55.66          32.99           -5.6         -18.36         -47.49          74.86          133.7          119.0          48.04
    0.6512              -17.86          21.89          55.39          33.21          -5.51         -18.33         -47.19          74.72          132.8          118.9          48.79
    0.6683              -18.16          21.97          55.06          33.49         -5.401          -18.3         -46.82          74.55          131.8          118.8          49.71
    0.6854              -18.52          22.06          54.64          33.83         -5.266         -18.25         -46.36          74.33          130.6          118.6          50.85
    0.7026              -18.97          22.18          54.13          34.26         -5.098          -18.2         -45.79          74.06          129.0          118.4          52.26
    0.7197              -19.54          22.33          53.48          34.79         -4.887         -18.13         -45.08          73.72          127.1          118.2          54.04
    0.7368              -20.26          22.53          52.65          35.47         -4.617         -18.05         -44.17          73.29          124.6          117.9          56.31
     0.754              -21.19          22.78           51.6          36.35         -4.273         -17.94         -43.01          72.73          121.4          117.5          59.21
    0.7711              -22.38          23.09          50.24          37.47         -3.831         -17.79         -41.51          72.02          117.3          117.0          62.94
    0.7883              -23.89           23.5          48.51           38.9         -3.266         -17.61         -39.61          71.12          112.1          116.3          67.69
    0.8054               -25.8          24.01          46.33          40.69         -2.556         -17.39         -37.21          69.98          105.5          115.5          73.68
    0.8225              -28.13          24.63          43.68          42.89         -1.691         -17.11         -34.28          68.59           97.5          114.5          80.96
    0.8397              -30.82          25.35           40.6          45.43        -0.6876         -16.79         -30.89          66.98          88.22          113.4          89.41
    0.8568              -33.74          26.13          37.27          48.18         0.3985         -16.45         -27.23          65.23          78.18          112.1          98.56
    0.8739              -36.66          26.91          33.94          50.93          1.485          -16.1         -23.56          63.49          68.13          110.9          107.7
    0.8911              -39.35          27.63          30.86          53.47          2.488         -15.78         -20.17          61.88          58.85          109.7          116.2
    0.9082              -41.67          28.26          28.21          55.66          3.353          -15.5         -17.25          60.49          50.85          108.7          123.4
    0.9253              -43.58          28.77          26.03          57.46          4.063         -15.28         -14.85          59.35          44.28          107.9          129.4
    0.9425               -45.1          29.17           24.3          58.89          4.628          -15.1         -12.94          58.44          39.05          107.3          134.2
    0.9596              -46.29          29.49          22.94          60.01           5.07         -14.96         -11.44          57.74          34.96          106.7          137.9
    0.9767              -47.21          29.74          21.89          60.88          5.414         -14.85         -10.28          57.18          31.78          106.4          140.8
    0.9939              -47.94          29.93          21.06          61.56          5.684         -14.76         -9.372          56.75          29.29          106.0          143.1
     1.011               -48.5          30.08          20.41           62.1          5.895         -14.69         -8.656          56.41          27.33          105.8          144.9
